{
  "source": "C:\\Users\\Peter\\Desktop\\stuff\\MIUN\\quantitative_research\\video_compression\\videos\\UVG\\YachtRide_1920x1080_120fps_420_8bit_YUV.y4m",
  "output": "C:\\Users\\Peter\\Desktop\\stuff\\MIUN\\quantitative_research\\video_compression\\compressed_videos\\UVG\\vp9\\1\\YachtRide_1920x1080_120fps_420_8bit_YUV_vp9.webm",
  "codec": "vp9",
  "ok": "[yuv4mpegpipe @ 00000195d7215280] Stream #0: not enough frames to estimate rate; consider increasing probesize\nInput #0, yuv4mpegpipe, from 'C:\\Users\\Peter\\Desktop\\stuff\\MIUN\\quantitative_research\\video_compression\\videos\\UVG\\YachtRide_1920x1080_120fps_420_8bit_YUV.y4m':\n  Duration: 00:00:05.00, start: 0.000000, bitrate: 2985989 kb/s\n  Stream #0:0: Video: rawvideo (I420 / 0x30323449), yuv420p(progressive), 1920x1080, 120 fps, 120 tbr, 120 tbn\n[out#0/webm @ 00000195d7218e00] Codec AVOption b:a (set bitrate (in bits/s)) has not been used for any stream. The most likely reason is either wrong type (e.g. a video option with no video streams) or that it is a private option of some decoder which was not actually used for any stream.\nStream mapping:\n  Stream #0:0 -> #0:0 (rawvideo (native) -> vp9 (libvpx-vp9))\nPress [q] to stop, [?] for help\n[libvpx-vp9 @ 00000195d721bf80] v1.15.2-100-g40561f514\nOutput #0, webm, to 'C:\\Users\\Peter\\Desktop\\stuff\\MIUN\\quantitative_research\\video_compression\\compressed_videos\\UVG\\vp9\\1\\YachtRide_1920x1080_120fps_420_8bit_YUV_vp9.webm':\n  Metadata:\n    encoder         : Lavf62.3.100\n  Stream #0:0: Video: vp9, yuv420p(tv, progressive), 1920x1080, q=2-31, 1000 kb/s, 120 fps, 1k tbn\n    Metadata:\n      encoder         : Lavc62.11.100 libvpx-vp9\n    Side data:\n      cpb: bitrate max/min/avg: 0/0/0 buffer size: 1000000 vbv_delay: N/A\nframe=    1 fps=0.0 q=54.0 size=       0KiB time=00:00:00.00 bitrate= 461.8kbits/s speed=0.0164x elapsed=0:00:00.50    \nframe=    6 fps=5.8 q=63.0 size=       0KiB time=00:00:00.05 bitrate=  77.0kbits/s speed=0.0485x elapsed=0:00:01.03    \nframe=   11 fps=7.1 q=63.0 size=       0KiB time=00:00:00.09 bitrate=  42.0kbits/s speed=0.0594x elapsed=0:00:01.54    \nframe=   15 fps=7.3 q=63.0 size=       0KiB time=00:00:00.12 bitrate=  30.8kbits/s speed=0.0608x elapsed=0:00:02.05    \nframe=   20 fps=7.8 q=63.0 size=       0KiB time=00:00:00.16 bitrate=  23.1kbits/s speed=0.0649x elapsed=0:00:02.56    \nframe=   24 fps=7.8 q=63.0 size=       0KiB time=00:00:00.20 bitrate=  19.2kbits/s speed=0.0647x elapsed=0:00:03.09    \nframe=   28 fps=7.7 q=63.0 size=       0KiB time=00:00:00.23 bitrate=  16.5kbits/s speed=0.0646x elapsed=0:00:03.61    \nframe=   32 fps=7.7 q=63.0 size=       0KiB time=00:00:00.26 bitrate=  14.4kbits/s speed=0.0646x elapsed=0:00:04.12    \nframe=   36 fps=7.7 q=63.0 size=       0KiB time=00:00:00.30 bitrate=  12.8kbits/s speed=0.0645x elapsed=0:00:04.65    \nframe=   40 fps=7.7 q=63.0 size=       0KiB time=00:00:00.33 bitrate=  11.5kbits/s speed=0.0645x elapsed=0:00:05.16    \nframe=   45 fps=7.9 q=63.0 size=       0KiB time=00:00:00.37 bitrate=  10.3kbits/s speed=0.0661x elapsed=0:00:05.67    \nframe=   49 fps=7.9 q=63.0 size=       0KiB time=00:00:00.40 bitrate=   9.4kbits/s speed=0.0659x elapsed=0:00:06.19    \nframe=   52 fps=7.7 q=63.0 size=       0KiB time=00:00:00.43 bitrate=   8.9kbits/s speed=0.0646x elapsed=0:00:06.71    \nframe=   57 fps=7.9 q=63.0 size=       0KiB time=00:00:00.47 bitrate=   8.1kbits/s speed=0.0657x elapsed=0:00:07.23    \nframe=   61 fps=7.9 q=63.0 size=       0KiB time=00:00:00.50 bitrate=   7.6kbits/s speed=0.0656x elapsed=0:00:07.74    \nframe=   65 fps=7.9 q=63.0 size=       0KiB time=00:00:00.54 bitrate=   7.1kbits/s speed=0.0656x elapsed=0:00:08.25    \nframe=   69 fps=7.9 q=63.0 size=       0KiB time=00:00:00.57 bitrate=   6.7kbits/s speed=0.0655x elapsed=0:00:08.78    \nframe=   73 fps=7.8 q=63.0 size=       0KiB time=00:00:00.60 bitrate=   6.3kbits/s speed=0.0654x elapsed=0:00:09.30    \nframe=   78 fps=8.0 q=63.0 size=       0KiB time=00:00:00.65 bitrate=   5.9kbits/s speed=0.0663x elapsed=0:00:09.80    \nframe=   82 fps=7.9 q=63.0 size=       0KiB time=00:00:00.68 bitrate=   5.6kbits/s speed=0.0662x elapsed=0:00:10.32    \nframe=   87 fps=8.0 q=63.0 size=       0KiB time=00:00:00.72 bitrate=   5.3kbits/s speed=0.0669x elapsed=0:00:10.83    \nframe=   90 fps=7.9 q=63.0 size=       0KiB time=00:00:00.75 bitrate=   5.1kbits/s speed=0.066x elapsed=0:00:11.35    \nframe=   95 fps=8.0 q=63.0 size=       0KiB time=00:00:00.79 bitrate=   4.9kbits/s speed=0.0667x elapsed=0:00:11.86    \nframe=   99 fps=8.0 q=63.0 size=       0KiB time=00:00:00.82 bitrate=   4.7kbits/s speed=0.0666x elapsed=0:00:12.38    \nframe=  103 fps=8.0 q=63.0 size=       0KiB time=00:00:00.85 bitrate=   4.5kbits/s speed=0.0665x elapsed=0:00:12.90    \nframe=  107 fps=8.0 q=63.0 size=       0KiB time=00:00:00.89 bitrate=   4.3kbits/s speed=0.0665x elapsed=0:00:13.41    \nframe=  111 fps=8.0 q=63.0 size=       0KiB time=00:00:00.92 bitrate=   4.2kbits/s speed=0.0664x elapsed=0:00:13.93    \nframe=  115 fps=8.0 q=63.0 size=       0KiB time=00:00:00.95 bitrate=   4.0kbits/s speed=0.0663x elapsed=0:00:14.45    \nframe=  120 fps=8.0 q=63.0 size=       0KiB time=00:00:01.00 bitrate=   3.8kbits/s speed=0.0668x elapsed=0:00:14.96    \nframe=  124 fps=8.0 q=63.0 size=       0KiB time=00:00:01.03 bitrate=   3.7kbits/s speed=0.0668x elapsed=0:00:15.47    \nframe=  128 fps=8.0 q=63.0 size=       0KiB time=00:00:01.06 bitrate=   3.6kbits/s speed=0.0667x elapsed=0:00:15.99    \nframe=  133 fps=8.1 q=63.0 size=     170KiB time=00:00:01.10 bitrate=1253.6kbits/s speed=0.0671x elapsed=0:00:16.52    \nframe=  138 fps=8.1 q=63.0 size=     170KiB time=00:00:01.15 bitrate=1208.2kbits/s speed=0.0675x elapsed=0:00:17.04    \nframe=  142 fps=8.1 q=63.0 size=     170KiB time=00:00:01.18 bitrate=1174.2kbits/s speed=0.0674x elapsed=0:00:17.55    \nframe=  146 fps=8.1 q=63.0 size=     170KiB time=00:00:01.21 bitrate=1142.0kbits/s speed=0.0673x elapsed=0:00:18.07    \nframe=  150 fps=8.1 q=63.0 size=     170KiB time=00:00:01.25 bitrate=1111.5kbits/s speed=0.0673x elapsed=0:00:18.58    \nframe=  154 fps=8.1 q=63.0 size=     170KiB time=00:00:01.28 bitrate=1082.7kbits/s speed=0.0672x elapsed=0:00:19.11    \nframe=  158 fps=8.1 q=63.0 size=     170KiB time=00:00:01.31 bitrate=1055.3kbits/s speed=0.0671x elapsed=0:00:19.61    \nframe=  162 fps=8.0 q=63.0 size=     170KiB time=00:00:01.35 bitrate=1029.2kbits/s speed=0.067x elapsed=0:00:20.13    \nframe=  166 fps=8.0 q=63.0 size=     170KiB time=00:00:01.38 bitrate=1004.4kbits/s speed=0.067x elapsed=0:00:20.65    \nframe=  170 fps=8.0 q=63.0 size=     170KiB time=00:00:01.41 bitrate= 980.8kbits/s speed=0.0669x elapsed=0:00:21.16    \nframe=  173 fps=8.0 q=63.0 size=     170KiB time=00:00:01.44 bitrate= 963.8kbits/s speed=0.0665x elapsed=0:00:21.68    \nframe=  177 fps=8.0 q=63.0 size=     170KiB time=00:00:01.47 bitrate= 942.0kbits/s speed=0.0664x elapsed=0:00:22.20    \nframe=  181 fps=8.0 q=63.0 size=     170KiB time=00:00:01.50 bitrate= 921.2kbits/s speed=0.0664x elapsed=0:00:22.71    \nframe=  185 fps=8.0 q=63.0 size=     170KiB time=00:00:01.54 bitrate= 901.2kbits/s speed=0.0663x elapsed=0:00:23.23    \nframe=  188 fps=7.9 q=63.0 size=     170KiB time=00:00:01.56 bitrate= 886.9kbits/s speed=0.066x elapsed=0:00:23.74    \nframe=  193 fps=8.0 q=63.0 size=     170KiB time=00:00:01.60 bitrate= 863.9kbits/s speed=0.0663x elapsed=0:00:24.26    \nframe=  197 fps=8.0 q=63.0 size=     170KiB time=00:00:01.64 bitrate= 846.3kbits/s speed=0.0663x elapsed=0:00:24.77    \nframe=  201 fps=7.9 q=63.0 size=     170KiB time=00:00:01.67 bitrate= 829.5kbits/s speed=0.0662x elapsed=0:00:25.28    \nframe=  204 fps=7.9 q=56.0 size=     170KiB time=00:00:01.70 bitrate= 817.3kbits/s speed=0.0659x elapsed=0:00:25.81    \nframe=  208 fps=7.9 q=63.0 size=     170KiB time=00:00:01.73 bitrate= 801.6kbits/s speed=0.0658x elapsed=0:00:26.32    \nframe=  212 fps=7.9 q=63.0 size=     170KiB time=00:00:01.76 bitrate= 786.5kbits/s speed=0.0658x elapsed=0:00:26.84    \nframe=  216 fps=7.9 q=63.0 size=     170KiB time=00:00:01.80 bitrate= 771.9kbits/s speed=0.0658x elapsed=0:00:27.34    \nframe=  220 fps=7.9 q=63.0 size=     170KiB time=00:00:01.83 bitrate= 757.9kbits/s speed=0.0658x elapsed=0:00:27.86    \nframe=  224 fps=7.9 q=63.0 size=     170KiB time=00:00:01.86 bitrate= 744.3kbits/s speed=0.0658x elapsed=0:00:28.38    \nframe=  228 fps=7.9 q=63.0 size=     170KiB time=00:00:01.90 bitrate= 731.3kbits/s speed=0.0657x elapsed=0:00:28.91    \nframe=  233 fps=7.9 q=63.0 size=     170KiB time=00:00:01.94 bitrate= 715.6kbits/s speed=0.066x elapsed=0:00:29.43    \nframe=  238 fps=7.9 q=63.0 size=     170KiB time=00:00:01.98 bitrate= 700.5kbits/s speed=0.0662x elapsed=0:00:29.94    \nframe=  243 fps=8.0 q=63.0 size=     170KiB time=00:00:02.02 bitrate= 686.1kbits/s speed=0.0665x elapsed=0:00:30.47    \nframe=  248 fps=8.0 q=63.0 size=     170KiB time=00:00:02.06 bitrate= 672.3kbits/s speed=0.0667x elapsed=0:00:31.00    \nframe=  252 fps=8.0 q=63.0 size=     170KiB time=00:00:02.10 bitrate= 661.6kbits/s speed=0.0666x elapsed=0:00:31.54    \nframe=  256 fps=8.0 q=63.0 size=     170KiB time=00:00:02.13 bitrate= 651.3kbits/s speed=0.0665x elapsed=0:00:32.07    \nframe=  260 fps=8.0 q=63.0 size=     256KiB time=00:00:02.16 bitrate= 967.9kbits/s speed=0.0665x elapsed=0:00:32.59    \nframe=  263 fps=7.9 q=63.0 size=     256KiB time=00:00:02.19 bitrate= 956.9kbits/s speed=0.0662x elapsed=0:00:33.11    \nframe=  268 fps=8.0 q=63.0 size=     256KiB time=00:00:02.23 bitrate= 939.0kbits/s speed=0.0664x elapsed=0:00:33.63    \nframe=  271 fps=7.9 q=56.0 size=     256KiB time=00:00:02.25 bitrate= 928.6kbits/s speed=0.0661x elapsed=0:00:34.15    \nframe=  276 fps=8.0 q=63.0 size=     256KiB time=00:00:02.30 bitrate= 911.8kbits/s speed=0.0663x elapsed=0:00:34.67    \nframe=  279 fps=7.9 q=63.0 size=     256KiB time=00:00:02.32 bitrate= 902.0kbits/s speed=0.0661x elapsed=0:00:35.18    \nframe=  284 fps=8.0 q=63.0 size=     256KiB time=00:00:02.36 bitrate= 886.1kbits/s speed=0.0663x elapsed=0:00:35.69    \nframe=  288 fps=8.0 q=63.0 size=     256KiB time=00:00:02.40 bitrate= 873.8kbits/s speed=0.0663x elapsed=0:00:36.22    \nframe=  291 fps=7.9 q=63.0 size=     256KiB time=00:00:02.42 bitrate= 864.8kbits/s speed=0.066x elapsed=0:00:36.73    \nframe=  295 fps=7.9 q=63.0 size=     256KiB time=00:00:02.45 bitrate= 853.1kbits/s speed=0.066x elapsed=0:00:37.23    \nframe=  299 fps=7.9 q=63.0 size=     256KiB time=00:00:02.49 bitrate= 841.7kbits/s speed=0.066x elapsed=0:00:37.75    \nframe=  303 fps=7.9 q=63.0 size=     256KiB time=00:00:02.52 bitrate= 830.6kbits/s speed=0.066x elapsed=0:00:38.27    \nframe=  306 fps=7.9 q=63.0 size=     256KiB time=00:00:02.55 bitrate= 822.4kbits/s speed=0.0657x elapsed=0:00:38.79    \nframe=  311 fps=7.9 q=63.0 size=     256KiB time=00:00:02.59 bitrate= 809.2kbits/s speed=0.0659x elapsed=0:00:39.30    \nframe=  314 fps=7.9 q=56.0 size=     256KiB time=00:00:02.61 bitrate= 801.5kbits/s speed=0.0657x elapsed=0:00:39.81    \nframe=  319 fps=7.9 q=63.0 size=     256KiB time=00:00:02.65 bitrate= 788.9kbits/s speed=0.0659x elapsed=0:00:40.33    \nframe=  322 fps=7.9 q=63.0 size=     256KiB time=00:00:02.68 bitrate= 781.5kbits/s speed=0.0657x elapsed=0:00:40.85    \nframe=  326 fps=7.9 q=63.0 size=     256KiB time=00:00:02.71 bitrate= 772.0kbits/s speed=0.0657x elapsed=0:00:41.37    \nframe=  329 fps=7.9 q=63.0 size=     256KiB time=00:00:02.74 bitrate= 764.9kbits/s speed=0.0655x elapsed=0:00:41.88    \nframe=  333 fps=7.9 q=63.0 size=     256KiB time=00:00:02.77 bitrate= 755.7kbits/s speed=0.0654x elapsed=0:00:42.40    \nframe=  337 fps=7.9 q=63.0 size=     256KiB time=00:00:02.80 bitrate= 746.8kbits/s speed=0.0654x elapsed=0:00:42.91    \nframe=  341 fps=7.9 q=63.0 size=     256KiB time=00:00:02.84 bitrate= 738.0kbits/s speed=0.0654x elapsed=0:00:43.43    \nframe=  344 fps=7.8 q=63.0 size=     256KiB time=00:00:02.86 bitrate= 731.6kbits/s speed=0.0652x elapsed=0:00:43.95    \nframe=  348 fps=7.8 q=63.0 size=     256KiB time=00:00:02.90 bitrate= 723.2kbits/s speed=0.0652x elapsed=0:00:44.46    \nframe=  352 fps=7.8 q=63.0 size=     256KiB time=00:00:02.93 bitrate= 714.9kbits/s speed=0.0652x elapsed=0:00:44.97    \nframe=  355 fps=7.8 q=63.0 size=     256KiB time=00:00:02.95 bitrate= 708.9kbits/s speed=0.065x elapsed=0:00:45.49    \nframe=  359 fps=7.8 q=63.0 size=     256KiB time=00:00:02.99 bitrate= 701.0kbits/s speed=0.065x elapsed=0:00:46.01    \nframe=  363 fps=7.8 q=63.0 size=     256KiB time=00:00:03.02 bitrate= 693.3kbits/s speed=0.065x elapsed=0:00:46.53    \nframe=  367 fps=7.8 q=63.0 size=     256KiB time=00:00:03.05 bitrate= 685.7kbits/s speed=0.065x elapsed=0:00:47.03    \nframe=  370 fps=7.8 q=63.0 size=     256KiB time=00:00:03.08 bitrate= 680.2kbits/s speed=0.0648x elapsed=0:00:47.55    \nframe=  375 fps=7.8 q=63.0 size=     256KiB time=00:00:03.12 bitrate= 671.1kbits/s speed=0.065x elapsed=0:00:48.07    \nframe=  378 fps=7.8 q=56.0 size=     256KiB time=00:00:03.15 bitrate= 665.8kbits/s speed=0.0648x elapsed=0:00:48.58    \nframe=  382 fps=7.8 q=63.0 size=     256KiB time=00:00:03.18 bitrate= 658.8kbits/s speed=0.0648x elapsed=0:00:49.10    \nframe=  385 fps=7.8 q=56.0 size=     256KiB time=00:00:03.20 bitrate= 653.7kbits/s speed=0.0647x elapsed=0:00:49.61    \nframe=  390 fps=7.8 q=63.0 size=     512KiB time=00:00:03.25 bitrate=1290.6kbits/s speed=0.0648x elapsed=0:00:50.13    \nframe=  393 fps=7.8 q=63.0 size=     512KiB time=00:00:03.27 bitrate=1280.7kbits/s speed=0.0647x elapsed=0:00:50.65    \nframe=  397 fps=7.8 q=63.0 size=     512KiB time=00:00:03.30 bitrate=1267.8kbits/s speed=0.0647x elapsed=0:00:51.16    \nframe=  401 fps=7.8 q=63.0 size=     512KiB time=00:00:03.34 bitrate=1255.2kbits/s speed=0.0647x elapsed=0:00:51.68    \nframe=  404 fps=7.7 q=63.0 size=     512KiB time=00:00:03.36 bitrate=1245.8kbits/s speed=0.0645x elapsed=0:00:52.20    \nframe=  408 fps=7.7 q=63.0 size=     512KiB time=00:00:03.40 bitrate=1233.6kbits/s speed=0.0645x elapsed=0:00:52.71    \nframe=  412 fps=7.7 q=63.0 size=     512KiB time=00:00:03.43 bitrate=1221.6kbits/s speed=0.0645x elapsed=0:00:53.23    \nframe=  415 fps=7.7 q=63.0 size=     512KiB time=00:00:03.45 bitrate=1212.8kbits/s speed=0.0643x elapsed=0:00:53.74    \nframe=  419 fps=7.7 q=63.0 size=     512KiB time=00:00:03.49 bitrate=1201.2kbits/s speed=0.0643x elapsed=0:00:54.26    \nframe=  422 fps=7.7 q=62.0 size=     512KiB time=00:00:03.51 bitrate=1192.7kbits/s speed=0.0642x elapsed=0:00:54.78    \nframe=  426 fps=7.7 q=63.0 size=     512KiB time=00:00:03.55 bitrate=1181.5kbits/s speed=0.0642x elapsed=0:00:55.29    \nframe=  430 fps=7.7 q=63.0 size=     512KiB time=00:00:03.58 bitrate=1170.5kbits/s speed=0.0642x elapsed=0:00:55.80    \nframe=  434 fps=7.7 q=63.0 size=     512KiB time=00:00:03.61 bitrate=1159.7kbits/s speed=0.0642x elapsed=0:00:56.32    \nframe=  438 fps=7.7 q=63.0 size=     512KiB time=00:00:03.65 bitrate=1149.1kbits/s speed=0.0642x elapsed=0:00:56.83    \nframe=  442 fps=7.7 q=63.0 size=     512KiB time=00:00:03.68 bitrate=1138.7kbits/s speed=0.0642x elapsed=0:00:57.35    \nframe=  446 fps=7.7 q=63.0 size=     512KiB time=00:00:03.71 bitrate=1128.5kbits/s speed=0.0642x elapsed=0:00:57.87    \nframe=  449 fps=7.7 q=63.0 size=     512KiB time=00:00:03.74 bitrate=1121.0kbits/s speed=0.0641x elapsed=0:00:58.38    \nframe=  453 fps=7.7 q=63.0 size=     512KiB time=00:00:03.77 bitrate=1111.1kbits/s speed=0.0641x elapsed=0:00:58.90    \nframe=  457 fps=7.7 q=63.0 size=     512KiB time=00:00:03.80 bitrate=1101.3kbits/s speed=0.0641x elapsed=0:00:59.41    \nframe=  462 fps=7.7 q=63.0 size=     512KiB time=00:00:03.85 bitrate=1089.4kbits/s speed=0.0642x elapsed=0:00:59.92    \nframe=  465 fps=7.7 q=56.0 size=     512KiB time=00:00:03.87 bitrate=1082.4kbits/s speed=0.0641x elapsed=0:01:00.44    \nframe=  469 fps=7.7 q=63.0 size=     512KiB time=00:00:03.90 bitrate=1073.2kbits/s speed=0.0641x elapsed=0:01:00.96    \nframe=  474 fps=7.7 q=63.0 size=     512KiB time=00:00:03.95 bitrate=1061.8kbits/s speed=0.0642x elapsed=0:01:01.47    \nframe=  478 fps=7.7 q=63.0 size=     512KiB time=00:00:03.98 bitrate=1053.0kbits/s speed=0.0643x elapsed=0:01:01.99    \nframe=  482 fps=7.7 q=63.0 size=     512KiB time=00:00:04.01 bitrate=1044.2kbits/s speed=0.0643x elapsed=0:01:02.50    \nframe=  486 fps=7.7 q=63.0 size=     512KiB time=00:00:04.05 bitrate=1035.6kbits/s speed=0.0642x elapsed=0:01:03.03    \nframe=  490 fps=7.7 q=63.0 size=     512KiB time=00:00:04.08 bitrate=1027.2kbits/s speed=0.0643x elapsed=0:01:03.53    \nframe=  494 fps=7.7 q=63.0 size=     512KiB time=00:00:04.11 bitrate=1018.9kbits/s speed=0.0643x elapsed=0:01:04.06    \nframe=  498 fps=7.7 q=63.0 size=     512KiB time=00:00:04.15 bitrate=1010.7kbits/s speed=0.0643x elapsed=0:01:04.57    \nframe=  502 fps=7.7 q=63.0 size=     512KiB time=00:00:04.18 bitrate=1002.6kbits/s speed=0.0643x elapsed=0:01:05.08    \nframe=  506 fps=7.7 q=63.0 size=     512KiB time=00:00:04.21 bitrate= 994.7kbits/s speed=0.0643x elapsed=0:01:05.60    \nframe=  510 fps=7.7 q=63.0 size=     512KiB time=00:00:04.25 bitrate= 986.9kbits/s speed=0.0643x elapsed=0:01:06.12    \nframe=  513 fps=7.7 q=56.0 size=     512KiB time=00:00:04.27 bitrate= 981.1kbits/s speed=0.0642x elapsed=0:01:06.63    \nframe=  518 fps=7.7 q=63.0 size=     512KiB time=00:00:04.31 bitrate= 971.7kbits/s speed=0.0643x elapsed=0:01:07.15    \nframe=  523 fps=7.7 q=63.0 size=     512KiB time=00:00:04.35 bitrate= 962.4kbits/s speed=0.0644x elapsed=0:01:07.68    \nframe=  527 fps=7.7 q=63.0 size=     512KiB time=00:00:04.39 bitrate= 955.1kbits/s speed=0.0644x elapsed=0:01:08.20    \nframe=  531 fps=7.7 q=63.0 size=     512KiB time=00:00:04.42 bitrate= 947.9kbits/s speed=0.0644x elapsed=0:01:08.71    \nframe=  535 fps=7.7 q=63.0 size=     512KiB time=00:00:04.45 bitrate= 940.8kbits/s speed=0.0644x elapsed=0:01:09.23    \nframe=  540 fps=7.7 q=63.0 size=     512KiB time=00:00:04.50 bitrate= 932.1kbits/s speed=0.0645x elapsed=0:01:09.74    \nframe=  543 fps=7.7 q=56.0 size=     512KiB time=00:00:04.52 bitrate= 926.9kbits/s speed=0.0644x elapsed=0:01:10.26    \nframe=  547 fps=7.7 q=63.0 size=     512KiB time=00:00:04.55 bitrate= 920.1kbits/s speed=0.0644x elapsed=0:01:10.78    \nframe=  551 fps=7.7 q=63.0 size=     512KiB time=00:00:04.59 bitrate= 913.5kbits/s speed=0.0644x elapsed=0:01:11.28    \nframe=  556 fps=7.7 q=63.0 size=     512KiB time=00:00:04.63 bitrate= 905.2kbits/s speed=0.0645x elapsed=0:01:11.80    \nframe=  559 fps=7.7 q=63.0 size=     512KiB time=00:00:04.65 bitrate= 900.4kbits/s speed=0.0644x elapsed=0:01:12.32    \nframe=  563 fps=7.7 q=63.0 size=     512KiB time=00:00:04.69 bitrate= 894.0kbits/s speed=0.0644x elapsed=0:01:12.83    \nframe=  567 fps=7.7 q=63.0 size=     512KiB time=00:00:04.72 bitrate= 887.7kbits/s speed=0.0644x elapsed=0:01:13.34    \nframe=  571 fps=7.7 q=63.0 size=     512KiB time=00:00:04.75 bitrate= 881.5kbits/s speed=0.0644x elapsed=0:01:13.86    \nframe=  575 fps=7.7 q=62.0 size=     512KiB time=00:00:04.79 bitrate= 875.3kbits/s speed=0.0644x elapsed=0:01:14.38    \nframe=  576 fps=7.7 q=63.0 size=     512KiB time=00:00:04.80 bitrate= 873.8kbits/s speed=0.0641x elapsed=0:01:14.90    \nframe=  576 fps=7.6 q=63.0 size=     512KiB time=00:00:04.80 bitrate= 873.8kbits/s speed=0.0636x elapsed=0:01:15.41    \nframe=  576 fps=7.6 q=63.0 size=     512KiB time=00:00:04.80 bitrate= 873.8kbits/s speed=0.0632x elapsed=0:01:15.92    \nframe=  576 fps=7.5 q=63.0 size=     512KiB time=00:00:04.80 bitrate= 873.8kbits/s speed=0.0628x elapsed=0:01:16.45    \nframe=  576 fps=7.5 q=63.0 size=     512KiB time=00:00:04.80 bitrate= 873.8kbits/s speed=0.0624x elapsed=0:01:16.96    \nframe=  576 fps=7.4 q=63.0 size=     512KiB time=00:00:04.80 bitrate= 873.8kbits/s speed=0.062x elapsed=0:01:17.47    \n[out#0/webm @ 00000195d7218e00] video:877KiB audio:0KiB subtitle:0KiB other streams:0KiB global headers:0KiB muxing overhead: 0.538132%\nframe=  600 fps=7.7 q=63.0 Lsize=     882KiB time=00:00:05.00 bitrate=1444.7kbits/s speed=0.0645x elapsed=0:01:17.48    \n",
  "seconds": 77.62964010238647,
  "probe_out": {}
}